<svg width="75" height="54" viewBox="0 0 75 54" fill="none" xmlns="http://www.w3.org/2000/svg">
<path d="M70.3684 53.204C72.7372 48.316 74.072 42.8264 74.072 37.036C74.072 16.5816 57.4904 0 37.036 0C16.5816 0 0 16.5816 0 37.036C0 42.8264 1.3348 48.316 3.7036 53.204H70.3684Z" fill="#C5DDE7"/>
<path d="M43.2326 36.1595C46.6591 36.1595 49.4368 34.9831 49.4368 33.5319C49.4368 32.0807 46.6591 30.9042 43.2326 30.9042C39.8061 30.9042 37.0284 32.0807 37.0284 33.5319C37.0284 34.9831 39.8061 36.1595 43.2326 36.1595Z" fill="#CE7D13"/>
<path d="M37.0284 31.9991V33.2764C37.0284 34.3712 38.5612 35.2836 40.751 35.6851C41.2619 35.7946 41.8458 35.8675 42.4297 35.8675C42.6852 35.8675 42.9772 35.904 43.2326 35.904C44.1085 35.904 44.9479 35.8311 45.7143 35.6851C47.904 35.2836 49.0354 34.3348 49.0354 33.2399L49.4368 31.8531C48.5609 30.8677 45.8603 30.6122 43.2326 30.6122C41.1524 30.6122 38.1598 31.3056 37.0284 31.9991Z" fill="#FFC50D"/>
<g opacity="0.43">
<path opacity="0.43" d="M40.7509 33.3494V35.6851C41.2619 35.7946 41.8458 35.8676 42.4297 35.8676V33.3494H40.7509Z" fill="#FFFC8F"/>
</g>
<path d="M45.4588 35.7216V30.7217C47.2471 30.8677 48.8164 31.1597 49.4368 31.8896V33.2764C49.4368 34.3713 47.7945 35.3201 45.4588 35.7216Z" fill="#F19D00"/>
<path d="M43.2326 34.6267C46.6591 34.6267 49.4368 33.4503 49.4368 31.999C49.4368 30.5478 46.6591 29.3714 43.2326 29.3714C39.8061 29.3714 37.0284 30.5478 37.0284 31.999C37.0284 33.4503 39.8061 34.6267 43.2326 34.6267Z" fill="#FFD400"/>
<path d="M39.6926 34.0428C38.6343 33.7143 37.8314 33.2399 37.4664 32.729L42.4662 29.4444C42.7582 29.4444 43.0502 29.4079 43.3056 29.4079C44.3275 29.4079 45.3494 29.5174 46.2252 29.7364L39.6926 34.0428Z" fill="#FFFC8F"/>
<path d="M42.4297 34.5172C41.9188 34.4807 41.4444 34.4442 40.9699 34.3348L47.4296 30.1013C47.7945 30.2473 48.123 30.3933 48.4149 30.5758L42.4297 34.5172Z" fill="#FFFC8F"/>
<path d="M43.2326 34.3348C46.6591 34.3348 49.4368 33.1583 49.4368 31.7071C49.4368 30.2559 46.6591 29.0794 43.2326 29.0794C39.8061 29.0794 37.0284 30.2559 37.0284 31.7071C37.0284 33.1583 39.8061 34.3348 43.2326 34.3348Z" fill="#CE7D13"/>
<path d="M37.0284 30.1743V31.4516C37.0284 32.5465 38.5612 33.4589 40.751 33.8603C41.2619 33.9698 41.8458 34.0428 42.4297 34.0428C42.6852 34.0428 42.9772 34.0793 43.2326 34.0793C44.1085 34.0793 44.9479 34.0063 45.7143 33.8603C47.904 33.4589 49.0354 32.51 49.0354 31.4151L49.4368 30.0283C48.5609 29.0429 45.8603 28.7875 43.2326 28.7875C41.1524 28.7875 38.1598 29.4809 37.0284 30.1743Z" fill="#FFC50D"/>
<g opacity="0.43">
<path opacity="0.43" d="M40.7509 31.5246V33.8603C41.2619 33.9698 41.8458 34.0428 42.4297 34.0428V31.5246H40.7509Z" fill="#FFFC8F"/>
</g>
<path d="M45.4588 33.8968V28.897C47.2471 29.043 48.8164 29.3349 49.4368 30.0648V31.4516C49.4368 32.5465 47.7945 33.4954 45.4588 33.8968Z" fill="#F19D00"/>
<path d="M43.2326 32.8019C46.6591 32.8019 49.4368 31.6255 49.4368 30.1743C49.4368 28.7231 46.6591 27.5466 43.2326 27.5466C39.8061 27.5466 37.0284 28.7231 37.0284 30.1743C37.0284 31.6255 39.8061 32.8019 43.2326 32.8019Z" fill="#FFD400"/>
<path d="M39.6926 32.218C38.6343 31.8896 37.8314 31.4151 37.4664 30.9042L42.4662 27.6196C42.7582 27.6196 43.0502 27.5831 43.3056 27.5831C44.3275 27.5831 45.3494 27.6926 46.2252 27.9116L39.6926 32.218Z" fill="#FFFC8F"/>
<path d="M42.4297 32.6925C41.9188 32.656 41.4444 32.6195 40.9699 32.51L47.4296 28.2766C47.7945 28.4225 48.123 28.5685 48.4149 28.751L42.4297 32.6925Z" fill="#FFFC8F"/>
<path d="M43.2326 32.51C46.6591 32.51 49.4368 31.3335 49.4368 29.8823C49.4368 28.4311 46.6591 27.2547 43.2326 27.2547C39.8061 27.2547 37.0284 28.4311 37.0284 29.8823C37.0284 31.3335 39.8061 32.51 43.2326 32.51Z" fill="#CE7D13"/>
<path d="M37.0284 28.3496V29.6269C37.0284 30.7217 38.5612 31.6341 40.751 32.0356C41.2619 32.1451 41.8458 32.218 42.4297 32.218C42.6852 32.218 42.9772 32.2545 43.2326 32.2545C44.1085 32.2545 44.9479 32.1815 45.7143 32.0356C47.904 31.6341 49.0354 30.6853 49.0354 29.5904L49.4368 28.2036C48.5609 27.2182 45.8603 26.9627 43.2326 26.9627C41.1524 26.9627 38.1598 27.6561 37.0284 28.3496Z" fill="#FFC50D"/>
<g opacity="0.43">
<path opacity="0.43" d="M40.7509 29.6999V32.0355C41.2619 32.145 41.8458 32.218 42.4297 32.218V29.6999H40.7509Z" fill="#FFFC8F"/>
</g>
<path d="M45.4588 32.072V27.0722C47.2471 27.2182 48.8164 27.5102 49.4368 28.2401V29.6269C49.4368 30.7217 47.7945 31.6706 45.4588 32.072Z" fill="#F19D00"/>
<path d="M43.2326 30.9772C46.6591 30.9772 49.4368 29.8008 49.4368 28.3495C49.4368 26.8983 46.6591 25.7219 43.2326 25.7219C39.8061 25.7219 37.0284 26.8983 37.0284 28.3495C37.0284 29.8008 39.8061 30.9772 43.2326 30.9772Z" fill="#FFD400"/>
<path d="M39.6926 30.3933C38.6343 30.0648 37.8314 29.5904 37.4664 29.0794L42.4662 25.7949C42.7582 25.7949 43.0502 25.7584 43.3056 25.7584C44.3275 25.7584 45.3494 25.8679 46.2252 26.0868L39.6926 30.3933Z" fill="#FFFC8F"/>
<path d="M42.4297 30.8677C41.9188 30.8312 41.4444 30.7947 40.9699 30.6852L47.4296 26.4518C47.7945 26.5978 48.123 26.7437 48.4149 26.9262L42.4297 30.8677Z" fill="#FFFC8F"/>
<path d="M43.2326 30.6852C46.6591 30.6852 49.4368 29.5088 49.4368 28.0576C49.4368 26.6064 46.6591 25.4299 43.2326 25.4299C39.8061 25.4299 37.0284 26.6064 37.0284 28.0576C37.0284 29.5088 39.8061 30.6852 43.2326 30.6852Z" fill="#CE7D13"/>
<path d="M37.0284 26.5248V27.8021C37.0284 28.897 38.5612 29.8094 40.751 30.2108C41.2619 30.3203 41.8458 30.3933 42.4297 30.3933C42.6852 30.3933 42.9772 30.4298 43.2326 30.4298C44.1085 30.4298 44.9479 30.3568 45.7143 30.2108C47.904 29.8094 49.0354 28.8605 49.0354 27.7656L49.4368 26.3788C48.5609 25.3934 45.8603 25.138 43.2326 25.138C41.1524 25.138 38.1598 25.8314 37.0284 26.5248Z" fill="#FFC50D"/>
<g opacity="0.43">
<path opacity="0.43" d="M40.7509 27.8751V30.2108C41.2619 30.3203 41.8458 30.3933 42.4297 30.3933V27.8751H40.7509Z" fill="#FFFC8F"/>
</g>
<path d="M45.4588 30.2473V25.2475C47.2471 25.3934 48.8164 25.6854 49.4368 26.4153V27.8021C49.4368 28.897 47.7945 29.8459 45.4588 30.2473Z" fill="#F19D00"/>
<path d="M43.2326 29.1524C46.6591 29.1524 49.4368 27.976 49.4368 26.5248C49.4368 25.0736 46.6591 23.8971 43.2326 23.8971C39.8061 23.8971 37.0284 25.0736 37.0284 26.5248C37.0284 27.976 39.8061 29.1524 43.2326 29.1524Z" fill="#FFD400"/>
<path d="M39.6926 28.5685C38.6343 28.2401 37.8314 27.7656 37.4664 27.2547L42.4662 23.9701C42.7582 23.9701 43.0502 23.9336 43.3056 23.9336C44.3275 23.9336 45.3494 24.0431 46.2252 24.2621L39.6926 28.5685Z" fill="#FFFC8F"/>
<path d="M42.4297 29.0429C41.9188 29.0064 41.4444 28.9699 40.9699 28.8605L47.4296 24.627C47.7945 24.773 48.123 24.919 48.4149 25.1014L42.4297 29.0429Z" fill="#FFFC8F"/>
<path d="M43.2326 28.8605C46.6591 28.8605 49.4368 27.684 49.4368 26.2328C49.4368 24.7816 46.6591 23.6052 43.2326 23.6052C39.8061 23.6052 37.0284 24.7816 37.0284 26.2328C37.0284 27.684 39.8061 28.8605 43.2326 28.8605Z" fill="#CE7D13"/>
<path d="M37.0284 24.7V25.9773C37.0284 27.0722 38.5612 27.9846 40.751 28.386C41.2619 28.4955 41.8458 28.5685 42.4297 28.5685C42.6852 28.5685 42.9772 28.605 43.2326 28.605C44.1085 28.605 44.9479 28.532 45.7143 28.386C47.904 27.9846 49.0354 27.0357 49.0354 25.9409L49.4368 24.554C48.5609 23.5687 45.8603 23.3132 43.2326 23.3132C41.1524 23.3132 38.1598 24.0066 37.0284 24.7Z" fill="#FFC50D"/>
<g opacity="0.43">
<path opacity="0.43" d="M40.7509 26.0504V28.386C41.2619 28.4955 41.8458 28.5685 42.4297 28.5685V26.0504H40.7509Z" fill="#FFFC8F"/>
</g>
<path d="M45.4588 28.4225V23.4227C47.2471 23.5687 48.8164 23.8606 49.4368 24.5905V25.9774C49.4368 27.0722 47.7945 28.0211 45.4588 28.4225Z" fill="#F19D00"/>
<path d="M43.2326 27.3277C46.6591 27.3277 49.4368 26.1512 49.4368 24.7C49.4368 23.2488 46.6591 22.0724 43.2326 22.0724C39.8061 22.0724 37.0284 23.2488 37.0284 24.7C37.0284 26.1512 39.8061 27.3277 43.2326 27.3277Z" fill="#FFD400"/>
<path d="M39.6926 26.7437C38.6343 26.4153 37.8314 25.9408 37.4664 25.4299L42.4662 22.1453C42.7582 22.1453 43.0502 22.1089 43.3056 22.1089C44.3275 22.1089 45.3494 22.2183 46.2252 22.4373L39.6926 26.7437Z" fill="#FFFC8F"/>
<path d="M42.4297 27.2182C41.9188 27.1817 41.4444 27.1452 40.9699 27.0357L47.4296 22.8023C47.7945 22.9483 48.123 23.0942 48.4149 23.2767L42.4297 27.2182Z" fill="#FFFC8F"/>
<path d="M43.2326 27.0357C46.6591 27.0357 49.4368 25.8593 49.4368 24.4081C49.4368 22.9568 46.6591 21.7804 43.2326 21.7804C39.8061 21.7804 37.0284 22.9568 37.0284 24.4081C37.0284 25.8593 39.8061 27.0357 43.2326 27.0357Z" fill="#CE7D13"/>
<path d="M37.0284 22.8753V24.1526C37.0284 25.2475 38.5612 26.1598 40.751 26.5613C41.2619 26.6708 41.8458 26.7438 42.4297 26.7438C42.6852 26.7438 42.9772 26.7803 43.2326 26.7803C44.1085 26.7803 44.9479 26.7073 45.7143 26.5613C47.904 26.1598 49.0354 25.211 49.0354 24.1161L49.4368 22.7293C48.5609 21.7439 45.8603 21.4885 43.2326 21.4885C41.1524 21.4885 38.1598 22.1819 37.0284 22.8753Z" fill="#FFC50D"/>
<g opacity="0.43">
<path opacity="0.43" d="M40.7509 24.2256V26.5613C41.2619 26.6708 41.8458 26.7438 42.4297 26.7438V24.2256H40.7509Z" fill="#FFFC8F"/>
</g>
<path d="M45.4588 26.5978V21.5979C47.2471 21.7439 48.8164 22.0359 49.4368 22.7658V24.1526C49.4368 25.2474 47.7945 26.1963 45.4588 26.5978Z" fill="#F19D00"/>
<path d="M43.2326 25.5029C46.6591 25.5029 49.4368 24.3265 49.4368 22.8753C49.4368 21.4241 46.6591 20.2476 43.2326 20.2476C39.8061 20.2476 37.0284 21.4241 37.0284 22.8753C37.0284 24.3265 39.8061 25.5029 43.2326 25.5029Z" fill="#FFD400"/>
<path d="M39.6926 24.919C38.6343 24.5905 37.8314 24.1161 37.4664 23.6052L42.4662 20.3206C42.7582 20.3206 43.0502 20.2841 43.3056 20.2841C44.3275 20.2841 45.3494 20.3936 46.2252 20.6126L39.6926 24.919Z" fill="#FFFC8F"/>
<path d="M42.4297 25.3934C41.9188 25.3569 41.4444 25.3204 40.9699 25.211L47.4296 20.9775C47.7945 21.1235 48.123 21.2695 48.4149 21.4519L42.4297 25.3934Z" fill="#FFFC8F"/>
<path d="M43.2326 25.211C46.6591 25.211 49.4368 24.0345 49.4368 22.5833C49.4368 21.1321 46.6591 19.9557 43.2326 19.9557C39.8061 19.9557 37.0284 21.1321 37.0284 22.5833C37.0284 24.0345 39.8061 25.211 43.2326 25.211Z" fill="#CE7D13"/>
<path d="M37.0284 21.0505V22.3278C37.0284 23.4227 38.5612 24.3351 40.751 24.7365C41.2619 24.846 41.8458 24.919 42.4297 24.919C42.6852 24.919 42.9772 24.9555 43.2326 24.9555C44.1085 24.9555 44.9479 24.8825 45.7143 24.7365C47.904 24.3351 49.0354 23.3862 49.0354 22.2914L49.4368 20.9045C48.5609 19.9192 45.8603 19.6637 43.2326 19.6637C41.1524 19.6637 38.1598 20.3571 37.0284 21.0505Z" fill="#FFC50D"/>
<g opacity="0.43">
<path opacity="0.43" d="M40.7509 22.4008V24.7365C41.2619 24.846 41.8458 24.919 42.4297 24.919V22.4008H40.7509Z" fill="#FFFC8F"/>
</g>
<path d="M45.4588 24.773V19.7732C47.2471 19.9191 48.8164 20.2111 49.4368 20.941V22.3278C49.4368 23.4227 47.7945 24.3716 45.4588 24.773Z" fill="#F19D00"/>
<path d="M43.2326 23.6782C46.6591 23.6782 49.4368 22.5017 49.4368 21.0505C49.4368 19.5993 46.6591 18.4229 43.2326 18.4229C39.8061 18.4229 37.0284 19.5993 37.0284 21.0505C37.0284 22.5017 39.8061 23.6782 43.2326 23.6782Z" fill="#FFD400"/>
<path d="M39.6926 23.0942C38.6343 22.7658 37.8314 22.2913 37.4664 21.7804L42.4662 18.4958C42.7582 18.4958 43.0502 18.4594 43.3056 18.4594C44.3275 18.4594 45.3494 18.5688 46.2252 18.7878L39.6926 23.0942Z" fill="#FFFC8F"/>
<path d="M42.4297 23.5687C41.9188 23.5322 41.4444 23.4957 40.9699 23.3862L47.4296 19.1527C47.7945 19.2987 48.123 19.4447 48.4149 19.6272L42.4297 23.5687Z" fill="#FFFC8F"/>
<path d="M43.2326 23.3862C46.6591 23.3862 49.4368 22.2098 49.4368 20.7585C49.4368 19.3073 46.6591 18.1309 43.2326 18.1309C39.8061 18.1309 37.0284 19.3073 37.0284 20.7585C37.0284 22.2098 39.8061 23.3862 43.2326 23.3862Z" fill="#CE7D13"/>
<path d="M37.0284 19.2257V20.5031C37.0284 21.5979 38.5612 22.5103 40.751 22.9118C41.2619 23.0212 41.8458 23.0942 42.4297 23.0942C42.6852 23.0942 42.9772 23.1307 43.2326 23.1307C44.1085 23.1307 44.9479 23.0577 45.7143 22.9118C47.904 22.5103 49.0354 21.5614 49.0354 20.4666L49.4368 19.0798C48.5609 18.0944 45.8603 17.8389 43.2326 17.8389C41.1524 17.8389 38.1598 18.5323 37.0284 19.2257Z" fill="#FFC50D"/>
<g opacity="0.43">
<path opacity="0.43" d="M40.7509 20.576V22.9117C41.2619 23.0212 41.8458 23.0942 42.4297 23.0942V20.576H40.7509Z" fill="#FFFC8F"/>
</g>
<path d="M45.4588 22.9483V17.9484C47.2471 18.0944 48.8164 18.3864 49.4368 19.1163V20.5031C49.4368 21.5979 47.7945 22.5468 45.4588 22.9483Z" fill="#F19D00"/>
<path d="M43.2326 21.8534C46.6591 21.8534 49.4368 20.6769 49.4368 19.2257C49.4368 17.7745 46.6591 16.5981 43.2326 16.5981C39.8061 16.5981 37.0284 17.7745 37.0284 19.2257C37.0284 20.6769 39.8061 21.8534 43.2326 21.8534Z" fill="#FFD400"/>
<path d="M39.6926 21.2695C38.6343 20.941 37.8314 20.4666 37.4664 19.9556L42.4662 16.6711C42.7582 16.6711 43.0502 16.6346 43.3056 16.6346C44.3275 16.6346 45.3494 16.7441 46.2252 16.963L39.6926 21.2695Z" fill="#FFFC8F"/>
<path d="M42.4297 21.7439C41.9188 21.7074 41.4444 21.6709 40.9699 21.5614L47.4296 17.328C47.7945 17.474 48.123 17.62 48.4149 17.8024L42.4297 21.7439Z" fill="#FFFC8F"/>
<path d="M43.2326 21.5615C46.6591 21.5615 49.4368 20.385 49.4368 18.9338C49.4368 17.4826 46.6591 16.3062 43.2326 16.3062C39.8061 16.3062 37.0284 17.4826 37.0284 18.9338C37.0284 20.385 39.8061 21.5615 43.2326 21.5615Z" fill="#CE7D13"/>
<path d="M37.0284 17.401V18.6783C37.0284 19.7732 38.5612 20.6855 40.751 21.087C41.2619 21.1965 41.8458 21.2695 42.4297 21.2695C42.6852 21.2695 42.9772 21.306 43.2326 21.306C44.1085 21.306 44.9479 21.233 45.7143 21.087C47.904 20.6855 49.0354 19.7367 49.0354 18.6418L49.4368 17.255C48.5609 16.2696 45.8603 16.0142 43.2326 16.0142C41.1524 16.0142 38.1598 16.7076 37.0284 17.401Z" fill="#FFC50D"/>
<g opacity="0.43">
<path opacity="0.43" d="M40.7509 18.7513V21.087C41.2619 21.1965 41.8458 21.2695 42.4297 21.2695V18.7513H40.7509Z" fill="#FFFC8F"/>
</g>
<path d="M45.4588 21.1235V16.1237C47.2471 16.2696 48.8164 16.5616 49.4368 17.2915V18.6783C49.4368 19.7732 47.7945 20.722 45.4588 21.1235Z" fill="#F19D00"/>
<path d="M43.2326 20.0287C46.6591 20.0287 49.4368 18.8522 49.4368 17.401C49.4368 15.9498 46.6591 14.7733 43.2326 14.7733C39.8061 14.7733 37.0284 15.9498 37.0284 17.401C37.0284 18.8522 39.8061 20.0287 43.2326 20.0287Z" fill="#FFD400"/>
<path d="M39.6926 19.4447C38.6343 19.1162 37.8314 18.6418 37.4664 18.1309L42.4662 14.8463C42.7582 14.8463 43.0502 14.8098 43.3056 14.8098C44.3275 14.8098 45.3494 14.9193 46.2252 15.1383L39.6926 19.4447Z" fill="#FFFC8F"/>
<path d="M42.4297 19.9192C41.9188 19.8827 41.4444 19.8462 40.9699 19.7367L47.4296 15.5032C47.7945 15.6492 48.123 15.7952 48.4149 15.9777L42.4297 19.9192Z" fill="#FFFC8F"/>
<path d="M43.2326 19.7367C46.6591 19.7367 49.4368 18.5602 49.4368 17.109C49.4368 15.6578 46.6591 14.4814 43.2326 14.4814C39.8061 14.4814 37.0284 15.6578 37.0284 17.109C37.0284 18.5602 39.8061 19.7367 43.2326 19.7367Z" fill="#CE7D13"/>
<path d="M37.0284 15.5762V16.8536C37.0284 17.9484 38.5612 18.8608 40.751 19.2623C41.2619 19.3717 41.8458 19.4447 42.4297 19.4447C42.6852 19.4447 42.9772 19.4812 43.2326 19.4812C44.1085 19.4812 44.9479 19.4082 45.7143 19.2623C47.904 18.8608 49.0354 17.9119 49.0354 16.8171L49.4368 15.4303C48.5609 14.4449 45.8603 14.1894 43.2326 14.1894C41.1524 14.1894 38.1598 14.8828 37.0284 15.5762Z" fill="#FFC50D"/>
<g opacity="0.43">
<path opacity="0.43" d="M40.7509 16.9265V19.2622C41.2619 19.3717 41.8458 19.4447 42.4297 19.4447V16.9265H40.7509Z" fill="#FFFC8F"/>
</g>
<path d="M45.4588 19.2987V14.2989C47.2471 14.4449 48.8164 14.7368 49.4368 15.4667V16.8536C49.4368 17.9484 47.7945 18.8973 45.4588 19.2987Z" fill="#F19D00"/>
<path d="M43.2326 18.2039C46.6591 18.2039 49.4368 17.0274 49.4368 15.5762C49.4368 14.125 46.6591 12.9486 43.2326 12.9486C39.8061 12.9486 37.0284 14.125 37.0284 15.5762C37.0284 17.0274 39.8061 18.2039 43.2326 18.2039Z" fill="#FFD400"/>
<path d="M39.6926 17.6199C38.6343 17.2915 37.8314 16.817 37.4664 16.3061L42.4662 13.0215C42.7582 13.0215 43.0502 12.985 43.3056 12.985C44.3275 12.985 45.3494 13.0945 46.2252 13.3135L39.6926 17.6199Z" fill="#FFFC8F"/>
<path d="M42.4297 18.0944C41.9188 18.0579 41.4444 18.0214 40.9699 17.9119L47.4296 13.6785C47.7945 13.8244 48.123 13.9704 48.4149 14.1529L42.4297 18.0944Z" fill="#FFFC8F"/>
<path d="M43.2326 17.9119C46.6591 17.9119 49.4368 16.7355 49.4368 15.2843C49.4368 13.8331 46.6591 12.6566 43.2326 12.6566C39.8061 12.6566 37.0284 13.8331 37.0284 15.2843C37.0284 16.7355 39.8061 17.9119 43.2326 17.9119Z" fill="#CE7D13"/>
<path d="M37.0284 13.7515V15.0288C37.0284 16.1237 38.5612 17.036 40.751 17.4375C41.2619 17.547 41.8458 17.62 42.4297 17.62C42.6852 17.62 42.9772 17.6565 43.2326 17.6565C44.1085 17.6565 44.9479 17.5835 45.7143 17.4375C47.904 17.036 49.0354 16.0872 49.0354 14.9923L49.4368 13.6055C48.5609 12.6201 45.8603 12.3647 43.2326 12.3647C41.1524 12.3647 38.1598 13.0581 37.0284 13.7515Z" fill="#FFC50D"/>
<g opacity="0.43">
<path opacity="0.43" d="M40.7509 15.1018V17.4375C41.2619 17.547 41.8458 17.6199 42.4297 17.6199V15.1018H40.7509Z" fill="#FFFC8F"/>
</g>
<path d="M45.4588 17.474V12.4741C47.2471 12.6201 48.8164 12.9121 49.4368 13.642V15.0288C49.4368 16.1236 47.7945 17.0725 45.4588 17.474Z" fill="#F19D00"/>
<path d="M43.2326 16.3791C46.6591 16.3791 49.4368 15.2027 49.4368 13.7515C49.4368 12.3002 46.6591 11.1238 43.2326 11.1238C39.8061 11.1238 37.0284 12.3002 37.0284 13.7515C37.0284 15.2027 39.8061 16.3791 43.2326 16.3791Z" fill="#FFD400"/>
<path d="M39.6926 15.7952C38.6343 15.4667 37.8314 14.9923 37.4664 14.4813L42.4662 11.1968C42.7582 11.1968 43.0502 11.1603 43.3056 11.1603C44.3275 11.1603 45.3494 11.2698 46.2252 11.4887L39.6926 15.7952Z" fill="#FFFC8F"/>
<path d="M42.4297 16.2696C41.9188 16.2331 41.4444 16.1967 40.9699 16.0872L47.4296 11.8537C47.7945 11.9997 48.123 12.1457 48.4149 12.3282L42.4297 16.2696Z" fill="#FFFC8F"/>
<path d="M43.2326 16.0872C46.6591 16.0872 49.4368 14.9107 49.4368 13.4595C49.4368 12.0083 46.6591 10.8319 43.2326 10.8319C39.8061 10.8319 37.0284 12.0083 37.0284 13.4595C37.0284 14.9107 39.8061 16.0872 43.2326 16.0872Z" fill="#CE7D13"/>
<path d="M37.0284 11.9267V13.204C37.0284 14.2989 38.5612 15.2113 40.751 15.6127C41.2619 15.7222 41.8458 15.7952 42.4297 15.7952C42.6852 15.7952 42.9772 15.8317 43.2326 15.8317C44.1085 15.8317 44.9479 15.7587 45.7143 15.6127C47.904 15.2113 49.0354 14.2624 49.0354 13.1675L49.4368 11.7807C48.5609 10.7954 45.8603 10.5399 43.2326 10.5399C41.1524 10.5399 38.1598 11.2333 37.0284 11.9267Z" fill="#FFC50D"/>
<g opacity="0.43">
<path opacity="0.43" d="M40.7509 13.277V15.6127C41.2619 15.7222 41.8458 15.7952 42.4297 15.7952V13.277H40.7509Z" fill="#FFFC8F"/>
</g>
<path d="M45.4588 15.6493V10.6494C47.2471 10.7954 48.8164 11.0874 49.4368 11.8173V13.2041C49.4368 14.2989 47.7945 15.2478 45.4588 15.6493Z" fill="#F19D00"/>
<path d="M43.2326 14.5544C46.6591 14.5544 49.4368 13.3779 49.4368 11.9267C49.4368 10.4755 46.6591 9.29907 43.2326 9.29907C39.8061 9.29907 37.0284 10.4755 37.0284 11.9267C37.0284 13.3779 39.8061 14.5544 43.2326 14.5544Z" fill="#FFD400"/>
<path d="M39.6926 13.9705C38.6343 13.642 37.8314 13.1676 37.4664 12.6566L42.4662 9.37207C42.7582 9.37207 43.0502 9.33557 43.3056 9.33557C44.3275 9.33557 45.3494 9.44506 46.2252 9.66403L39.6926 13.9705Z" fill="#FFFC8F"/>
<path d="M42.4297 14.4449C41.9188 14.4084 41.4444 14.3719 40.9699 14.2624L47.4296 10.029C47.7945 10.1749 48.123 10.3209 48.4149 10.5034L42.4297 14.4449Z" fill="#FFFC8F"/>
<path d="M43.2326 14.2624C46.6591 14.2624 49.4368 13.086 49.4368 11.6348C49.4368 10.1836 46.6591 9.00714 43.2326 9.00714C39.8061 9.00714 37.0284 10.1836 37.0284 11.6348C37.0284 13.086 39.8061 14.2624 43.2326 14.2624Z" fill="#CE7D13"/>
<path d="M37.0284 10.102V11.3793C37.0284 12.4742 38.5612 13.3866 40.751 13.788C41.2619 13.8975 41.8458 13.9705 42.4297 13.9705C42.6852 13.9705 42.9772 14.007 43.2326 14.007C44.1085 14.007 44.9479 13.934 45.7143 13.788C47.904 13.3866 49.0354 12.4377 49.0354 11.3428L49.4368 9.95601C48.5609 8.97064 45.8603 8.71518 43.2326 8.71518C41.1524 8.71518 38.1598 9.40859 37.0284 10.102Z" fill="#FFC50D"/>
<g opacity="0.43">
<path opacity="0.43" d="M40.7509 11.4523V13.788C41.2619 13.8975 41.8458 13.9705 42.4297 13.9705V11.4523H40.7509Z" fill="#FFFC8F"/>
</g>
<path d="M45.4588 13.8245V8.82465C47.2471 8.97063 48.8164 9.26259 49.4368 9.99249V11.3793C49.4368 12.4742 47.7945 13.423 45.4588 13.8245Z" fill="#F19D00"/>
<path d="M43.2326 12.7296C46.6591 12.7296 49.4368 11.5532 49.4368 10.102C49.4368 8.65074 46.6591 7.4743 43.2326 7.4743C39.8061 7.4743 37.0284 8.65074 37.0284 10.102C37.0284 11.5532 39.8061 12.7296 43.2326 12.7296Z" fill="#FFD400"/>
<path d="M39.6926 12.1457C38.6343 11.8172 37.8314 11.3428 37.4664 10.8319L42.4662 7.5473C42.7582 7.5473 43.0502 7.5108 43.3056 7.5108C44.3275 7.5108 45.3494 7.62029 46.2252 7.83926L39.6926 12.1457Z" fill="#FFFC8F"/>
<path d="M42.4297 12.6201C41.9188 12.5836 41.4444 12.5471 40.9699 12.4377L47.4296 8.20422C47.7945 8.3502 48.123 8.49618 48.4149 8.67866L42.4297 12.6201Z" fill="#FFFC8F"/>
<path d="M43.2326 12.4376C46.6591 12.4376 49.4368 11.2612 49.4368 9.81C49.4368 8.35878 46.6591 7.18234 43.2326 7.18234C39.8061 7.18234 37.0284 8.35878 37.0284 9.81C37.0284 11.2612 39.8061 12.4376 43.2326 12.4376Z" fill="#CE7D13"/>
<path d="M37.0284 8.2772V9.55453C37.0284 10.6494 38.5612 11.5618 40.751 11.9632C41.2619 12.0727 41.8458 12.1457 42.4297 12.1457C42.6852 12.1457 42.9772 12.1822 43.2326 12.1822C44.1085 12.1822 44.9479 12.1092 45.7143 11.9632C47.904 11.5618 49.0354 10.6129 49.0354 9.51803L49.4368 8.13121C48.5609 7.14584 45.8603 6.89038 43.2326 6.89038C41.1524 6.89038 38.1598 7.58379 37.0284 8.2772Z" fill="#FFC50D"/>
<g opacity="0.43">
<path opacity="0.43" d="M40.7509 9.6275V11.9632C41.2619 12.0727 41.8458 12.1457 42.4297 12.1457V9.6275H40.7509Z" fill="#FFFC8F"/>
</g>
<path d="M45.4588 11.9997V6.99985C47.2471 7.14583 48.8164 7.43779 49.4368 8.16769V9.55451C49.4368 10.6494 47.7945 11.5982 45.4588 11.9997Z" fill="#F19D00"/>
<path d="M43.2326 10.9048C46.6591 10.9048 49.4368 9.7284 49.4368 8.27719C49.4368 6.82598 46.6591 5.64954 43.2326 5.64954C39.8061 5.64954 37.0284 6.82598 37.0284 8.27719C37.0284 9.7284 39.8061 10.9048 43.2326 10.9048Z" fill="#FFD400"/>
<path d="M39.6926 10.3209C38.6343 9.99244 37.8314 9.518 37.4664 9.00707L42.4662 5.7225C42.7582 5.7225 43.0502 5.686 43.3056 5.686C44.3275 5.686 45.3494 5.79549 46.2252 6.01446L39.6926 10.3209Z" fill="#FFFC8F"/>
<path d="M42.4297 10.7954C41.9188 10.7589 41.4444 10.7224 40.9699 10.6129L47.4296 6.37946C47.7945 6.52544 48.123 6.67141 48.4149 6.85389L42.4297 10.7954Z" fill="#FFFC8F"/>
<path d="M43.2326 10.6129C46.6591 10.6129 49.4368 9.43647 49.4368 7.98526C49.4368 6.53404 46.6591 5.3576 43.2326 5.3576C39.8061 5.3576 37.0284 6.53404 37.0284 7.98526C37.0284 9.43647 39.8061 10.6129 43.2326 10.6129Z" fill="#CE7D13"/>
<path d="M37.0284 6.45243V7.72976C37.0284 8.82462 38.5612 9.73699 40.751 10.1384C41.2619 10.2479 41.8458 10.3209 42.4297 10.3209C42.6852 10.3209 42.9772 10.3574 43.2326 10.3574C44.1085 10.3574 44.9479 10.2844 45.7143 10.1384C47.904 9.73699 49.0354 8.78812 49.0354 7.69327L49.4368 6.30645C48.5609 5.32108 45.8603 5.06561 43.2326 5.06561C41.1524 5.06561 38.1598 5.75902 37.0284 6.45243Z" fill="#FFC50D"/>
<g opacity="0.43">
<path opacity="0.43" d="M40.7509 7.80276V10.1385C41.2619 10.2479 41.8458 10.3209 42.4297 10.3209V7.80276H40.7509Z" fill="#FFFC8F"/>
</g>
<path d="M45.4588 10.175V5.17514C47.2471 5.32112 48.8164 5.61308 49.4368 6.34299V7.7298C49.4368 8.82466 47.7945 9.77353 45.4588 10.175Z" fill="#F19D00"/>
<path d="M43.2328 9.0801C46.6593 9.0801 49.437 7.90366 49.437 6.45245C49.437 5.00124 46.6593 3.8248 43.2328 3.8248C39.8063 3.8248 37.0286 5.00124 37.0286 6.45245C37.0286 7.90366 39.8063 9.0801 43.2328 9.0801Z" fill="#FFD400"/>
<path d="M39.6926 8.49619C38.6343 8.16773 37.8314 7.69329 37.4664 7.18236L42.4662 3.8978C42.7582 3.8978 43.0502 3.8613 43.3056 3.8613C44.3275 3.8613 45.3494 3.97079 46.2252 4.18976L39.6926 8.49619Z" fill="#FFFC8F"/>
<path d="M42.4297 8.9706C41.9188 8.93411 41.4444 8.89761 40.9699 8.78813L47.4296 4.55469C47.7945 4.70067 48.123 4.84664 48.4149 5.02912L42.4297 8.9706Z" fill="#FFFC8F"/>
<path d="M43.2326 8.78811C46.6591 8.78811 49.4368 7.61167 49.4368 6.16046C49.4368 4.70925 46.6591 3.53281 43.2326 3.53281C39.8061 3.53281 37.0284 4.70925 37.0284 6.16046C37.0284 7.61167 39.8061 8.78811 43.2326 8.78811Z" fill="#CE7D13"/>
<path d="M37.0284 4.62766V5.90499C37.0284 6.99985 38.5612 7.91223 40.751 8.31367C41.2619 8.42316 41.8458 8.49615 42.4297 8.49615C42.6852 8.49615 42.9772 8.53265 43.2326 8.53265C44.1085 8.53265 44.9479 8.45965 45.7143 8.31367C47.904 7.91223 49.0354 6.96335 49.0354 5.8685L49.4368 4.48168C48.5609 3.49631 45.8603 3.24084 43.2326 3.24084C41.1524 3.24084 38.1598 3.93425 37.0284 4.62766Z" fill="#FFC50D"/>
<g opacity="0.43">
<path opacity="0.43" d="M40.7509 5.978V8.31369C41.2619 8.42317 41.8458 8.49616 42.4297 8.49616V5.978H40.7509Z" fill="#FFFC8F"/>
</g>
<path d="M45.4588 8.35018V3.35034C47.2471 3.49632 48.8164 3.78828 49.4368 4.51819V5.905C49.4368 6.99986 47.7945 7.94873 45.4588 8.35018Z" fill="#F19D00"/>
<path d="M43.2328 7.25531C46.6593 7.25531 49.437 6.07887 49.437 4.62765C49.437 3.17644 46.6593 2 43.2328 2C39.8063 2 37.0286 3.17644 37.0286 4.62765C37.0286 6.07887 39.8063 7.25531 43.2328 7.25531Z" fill="#FFD400"/>
<path d="M39.6926 6.67139C38.6342 6.34293 37.8313 5.8685 37.4664 5.35756L42.4662 2.073C42.7582 2.073 43.0501 2.0365 43.3056 2.0365C44.3275 2.0365 45.3493 2.14599 46.2252 2.36496L39.6926 6.67139Z" fill="#FFFC8F"/>
<path d="M42.4297 7.14583C41.9188 7.10934 41.4444 7.07284 40.9699 6.96336L47.4296 2.72992C47.7945 2.8759 48.123 3.02188 48.4149 3.20435L42.4297 7.14583Z" fill="#FFFC8F"/>
<path d="M53.1959 40.174C56.6223 40.174 59.4 38.9975 59.4 37.5463C59.4 36.0951 56.6223 34.9186 53.1959 34.9186C49.7694 34.9186 46.9917 36.0951 46.9917 37.5463C46.9917 38.9975 49.7694 40.174 53.1959 40.174Z" fill="#CE7D13"/>
<path d="M46.9917 36.0135V37.2908C46.9917 38.3857 48.5244 39.2981 50.7142 39.6995C51.2251 39.809 51.809 39.882 52.393 39.882C52.6484 39.882 52.9404 39.9185 53.1959 39.9185C54.0717 39.9185 54.9111 39.8455 55.6775 39.6995C57.8672 39.2981 58.9986 38.3492 58.9986 37.2543L59.4 35.8675C58.5241 34.8821 55.8235 34.6267 53.1959 34.6267C51.1156 34.6267 48.123 35.3201 46.9917 36.0135Z" fill="#FFC50D"/>
<g opacity="0.43">
<path opacity="0.43" d="M50.7142 37.3638V39.6995C51.2251 39.809 51.809 39.882 52.393 39.882V37.3638H50.7142Z" fill="#FFFC8F"/>
</g>
<path d="M55.4221 39.736V34.7362C57.2103 34.8822 58.7796 35.1741 59.4 35.904V37.2908C59.4 38.3857 57.7578 39.3346 55.4221 39.736Z" fill="#F19D00"/>
<path d="M53.1959 38.6412C56.6223 38.6412 59.4 37.4647 59.4 36.0135C59.4 34.5623 56.6223 33.3859 53.1959 33.3859C49.7694 33.3859 46.9917 34.5623 46.9917 36.0135C46.9917 37.4647 49.7694 38.6412 53.1959 38.6412Z" fill="#FFD400"/>
<path d="M49.6558 38.0572C48.5975 37.7288 47.7945 37.2543 47.4296 36.7434L52.4294 33.4588C52.7214 33.4588 53.0134 33.4224 53.2688 33.4224C54.2907 33.4224 55.3126 33.5318 56.1884 33.7508L49.6558 38.0572Z" fill="#FFFC8F"/>
<path d="M52.3929 38.5317C51.882 38.4952 51.4076 38.4587 50.9331 38.3492L57.3928 34.1158C57.7577 34.2617 58.0862 34.4077 58.3781 34.5902L52.3929 38.5317Z" fill="#FFFC8F"/>
<path d="M53.1959 38.3492C56.6223 38.3492 59.4 37.1727 59.4 35.7215C59.4 34.2703 56.6223 33.0939 53.1959 33.0939C49.7694 33.0939 46.9917 34.2703 46.9917 35.7215C46.9917 37.1727 49.7694 38.3492 53.1959 38.3492Z" fill="#CE7D13"/>
<path d="M46.9917 34.1888V35.4661C46.9917 36.5609 48.5244 37.4733 50.7142 37.8748C51.2251 37.9843 51.809 38.0572 52.393 38.0572C52.6484 38.0572 52.9404 38.0937 53.1959 38.0937C54.0717 38.0937 54.9111 38.0208 55.6775 37.8748C57.8672 37.4733 58.9986 36.5245 58.9986 35.4296L59.4 34.0428C58.5241 33.0574 55.8235 32.8019 53.1959 32.8019C51.1156 32.8019 48.123 33.4953 46.9917 34.1888Z" fill="#FFC50D"/>
<g opacity="0.43">
<path opacity="0.43" d="M50.7142 35.5391V37.8748C51.2251 37.9843 51.809 38.0573 52.393 38.0573V35.5391H50.7142Z" fill="#FFFC8F"/>
</g>
<path d="M55.4221 37.9113V32.9114C57.2103 33.0574 58.7796 33.3494 59.4 34.0793V35.4661C59.4 36.5609 57.7578 37.5098 55.4221 37.9113Z" fill="#F19D00"/>
<path d="M53.1959 36.8164C56.6223 36.8164 59.4 35.64 59.4 34.1887C59.4 32.7375 56.6223 31.5611 53.1959 31.5611C49.7694 31.5611 46.9917 32.7375 46.9917 34.1887C46.9917 35.64 49.7694 36.8164 53.1959 36.8164Z" fill="#FFD400"/>
<path d="M49.6558 36.2325C48.5975 35.904 47.7945 35.4296 47.4296 34.9186L52.4294 31.6341C52.7214 31.6341 53.0134 31.5976 53.2688 31.5976C54.2907 31.5976 55.3126 31.7071 56.1884 31.926L49.6558 36.2325Z" fill="#FFFC8F"/>
<path d="M52.3929 36.7069C51.882 36.6704 51.4076 36.6339 50.9331 36.5244L57.3928 32.291C57.7577 32.437 58.0862 32.5829 58.3781 32.7654L52.3929 36.7069Z" fill="#FFFC8F"/>
<path d="M53.1959 36.5245C56.6223 36.5245 59.4 35.348 59.4 33.8968C59.4 32.4456 56.6223 31.2691 53.1959 31.2691C49.7694 31.2691 46.9917 32.4456 46.9917 33.8968C46.9917 35.348 49.7694 36.5245 53.1959 36.5245Z" fill="#CE7D13"/>
<path d="M46.9917 32.364V33.6413C46.9917 34.7362 48.5244 35.6486 50.7142 36.05C51.2251 36.1595 51.809 36.2325 52.393 36.2325C52.6484 36.2325 52.9404 36.269 53.1959 36.269C54.0717 36.269 54.9111 36.196 55.6775 36.05C57.8672 35.6486 58.9986 34.6997 58.9986 33.6048L59.4 32.218C58.5241 31.2326 55.8235 30.9772 53.1959 30.9772C51.1156 30.9772 48.123 31.6706 46.9917 32.364Z" fill="#FFC50D"/>
<g opacity="0.43">
<path opacity="0.43" d="M50.7142 33.7143V36.05C51.2251 36.1595 51.809 36.2325 52.393 36.2325V33.7143H50.7142Z" fill="#FFFC8F"/>
</g>
<path d="M55.4221 36.0865V31.0867C57.2103 31.2327 58.7796 31.5246 59.4 32.2545V33.6413C59.4 34.7362 57.7578 35.6851 55.4221 36.0865Z" fill="#F19D00"/>
<path d="M53.1959 34.9916C56.6223 34.9916 59.4 33.8152 59.4 32.364C59.4 30.9128 56.6223 29.7363 53.1959 29.7363C49.7694 29.7363 46.9917 30.9128 46.9917 32.364C46.9917 33.8152 49.7694 34.9916 53.1959 34.9916Z" fill="#FFD400"/>
<path d="M49.6558 34.4077C48.5975 34.0793 47.7945 33.6048 47.4296 33.0939L52.4294 29.8093C52.7214 29.8093 53.0134 29.7728 53.2688 29.7728C54.2907 29.7728 55.3126 29.8823 56.1884 30.1013L49.6558 34.4077Z" fill="#FFFC8F"/>
<path d="M52.3929 34.8822C51.882 34.8457 51.4076 34.8092 50.9331 34.6997L57.3928 30.4662C57.7577 30.6122 58.0862 30.7582 58.3781 30.9407L52.3929 34.8822Z" fill="#FFFC8F"/>
<path d="M53.1959 34.6997C56.6223 34.6997 59.4 33.5232 59.4 32.072C59.4 30.6208 56.6223 29.4444 53.1959 29.4444C49.7694 29.4444 46.9917 30.6208 46.9917 32.072C46.9917 33.5232 49.7694 34.6997 53.1959 34.6997Z" fill="#CE7D13"/>
<path d="M46.9917 30.5392V31.8165C46.9917 32.9114 48.5244 33.8238 50.7142 34.2252C51.2251 34.3347 51.809 34.4077 52.393 34.4077C52.6484 34.4077 52.9404 34.4442 53.1959 34.4442C54.0717 34.4442 54.9111 34.3712 55.6775 34.2252C57.8672 33.8238 58.9986 32.8749 58.9986 31.7801L59.4 30.3932C58.5241 29.4079 55.8235 29.1524 53.1959 29.1524C51.1156 29.1524 48.123 29.8458 46.9917 30.5392Z" fill="#FFC50D"/>
<g opacity="0.43">
<path opacity="0.43" d="M50.7142 31.8896V34.2252C51.2251 34.3347 51.809 34.4077 52.393 34.4077V31.8896H50.7142Z" fill="#FFFC8F"/>
</g>
<path d="M55.4221 34.2617V29.2619C57.2103 29.4079 58.7796 29.6998 59.4 30.4298V31.8166C59.4 32.9114 57.7578 33.8603 55.4221 34.2617Z" fill="#F19D00"/>
<path d="M53.1959 33.1669C56.6223 33.1669 59.4 31.9905 59.4 30.5392C59.4 29.088 56.6223 27.9116 53.1959 27.9116C49.7694 27.9116 46.9917 29.088 46.9917 30.5392C46.9917 31.9905 49.7694 33.1669 53.1959 33.1669Z" fill="#FFD400"/>
<path d="M49.6558 32.5829C48.5975 32.2545 47.7945 31.78 47.4296 31.2691L52.4294 27.9845C52.7214 27.9845 53.0134 27.9481 53.2688 27.9481C54.2907 27.9481 55.3126 28.0575 56.1884 28.2765L49.6558 32.5829Z" fill="#FFFC8F"/>
<path d="M52.3929 33.0574C51.882 33.0209 51.4076 32.9844 50.9331 32.8749L57.3928 28.6415C57.7577 28.7875 58.0862 28.9334 58.3781 29.1159L52.3929 33.0574Z" fill="#FFFC8F"/>
<path d="M53.1959 32.8749C56.6223 32.8749 59.4 31.6985 59.4 30.2473C59.4 28.796 56.6223 27.6196 53.1959 27.6196C49.7694 27.6196 46.9917 28.796 46.9917 30.2473C46.9917 31.6985 49.7694 32.8749 53.1959 32.8749Z" fill="#CE7D13"/>
<path d="M46.9917 28.7145V29.9918C46.9917 31.0867 48.5244 31.999 50.7142 32.4005C51.2251 32.51 51.809 32.583 52.393 32.583C52.6484 32.583 52.9404 32.6195 53.1959 32.6195C54.0717 32.6195 54.9111 32.5465 55.6775 32.4005C57.8672 31.999 58.9986 31.0502 58.9986 29.9553L59.4 28.5685C58.5241 27.5831 55.8235 27.3277 53.1959 27.3277C51.1156 27.3277 48.123 28.0211 46.9917 28.7145Z" fill="#FFC50D"/>
<g opacity="0.43">
<path opacity="0.43" d="M50.7142 30.0648V32.4005C51.2251 32.51 51.809 32.583 52.393 32.583V30.0648H50.7142Z" fill="#FFFC8F"/>
</g>
<path d="M55.4221 32.437V27.4371C57.2103 27.5831 58.7796 27.8751 59.4 28.605V29.9918C59.4 31.0867 57.7578 32.0355 55.4221 32.437Z" fill="#F19D00"/>
<path d="M53.1959 31.3421C56.6223 31.3421 59.4 30.1657 59.4 28.7145C59.4 27.2633 56.6223 26.0868 53.1959 26.0868C49.7694 26.0868 46.9917 27.2633 46.9917 28.7145C46.9917 30.1657 49.7694 31.3421 53.1959 31.3421Z" fill="#FFD400"/>
<path d="M49.6558 30.7582C48.5975 30.4297 47.7945 29.9553 47.4296 29.4444L52.4294 26.1598C52.7214 26.1598 53.0134 26.1233 53.2688 26.1233C54.2907 26.1233 55.3126 26.2328 56.1884 26.4518L49.6558 30.7582Z" fill="#FFFC8F"/>
<path d="M52.3929 31.2326C51.882 31.1961 51.4076 31.1596 50.9331 31.0502L57.3928 26.8167C57.7577 26.9627 58.0862 27.1087 58.3781 27.2911L52.3929 31.2326Z" fill="#FFFC8F"/>
<path d="M53.1959 31.0502C56.6223 31.0502 59.4 29.8737 59.4 28.4225C59.4 26.9713 56.6223 25.7949 53.1959 25.7949C49.7694 25.7949 46.9917 26.9713 46.9917 28.4225C46.9917 29.8737 49.7694 31.0502 53.1959 31.0502Z" fill="#CE7D13"/>
<path d="M46.9917 26.8897V28.167C46.9917 29.2619 48.5244 30.1743 50.7142 30.5757C51.2251 30.6852 51.809 30.7582 52.393 30.7582C52.6484 30.7582 52.9404 30.7947 53.1959 30.7947C54.0717 30.7947 54.9111 30.7217 55.6775 30.5757C57.8672 30.1743 58.9986 29.2254 58.9986 28.1306L59.4 26.7437C58.5241 25.7584 55.8235 25.5029 53.1959 25.5029C51.1156 25.5029 48.123 26.1963 46.9917 26.8897Z" fill="#FFC50D"/>
<g opacity="0.43">
<path opacity="0.43" d="M50.7142 28.24V30.5757C51.2251 30.6852 51.809 30.7582 52.393 30.7582V28.24H50.7142Z" fill="#FFFC8F"/>
</g>
<path d="M55.4221 30.6122V25.6124C57.2103 25.7584 58.7796 26.0503 59.4 26.7802V28.1671C59.4 29.2619 57.7578 30.2108 55.4221 30.6122Z" fill="#F19D00"/>
<path d="M53.1959 29.5174C56.6223 29.5174 59.4 28.3409 59.4 26.8897C59.4 25.4385 56.6223 24.2621 53.1959 24.2621C49.7694 24.2621 46.9917 25.4385 46.9917 26.8897C46.9917 28.3409 49.7694 29.5174 53.1959 29.5174Z" fill="#FFD400"/>
<path d="M49.6558 28.9334C48.5975 28.605 47.7945 28.1305 47.4296 27.6196L52.4294 24.335C52.7214 24.335 53.0134 24.2986 53.2688 24.2986C54.2907 24.2986 55.3126 24.408 56.1884 24.627L49.6558 28.9334Z" fill="#FFFC8F"/>
<path d="M52.3929 29.4079C51.882 29.3714 51.4076 29.3349 50.9331 29.2254L57.3928 24.992C57.7577 25.138 58.0862 25.2839 58.3781 25.4664L52.3929 29.4079Z" fill="#FFFC8F"/>
<path d="M53.1959 29.2254C56.6223 29.2254 59.4 28.049 59.4 26.5978C59.4 25.1465 56.6223 23.9701 53.1959 23.9701C49.7694 23.9701 46.9917 25.1465 46.9917 26.5978C46.9917 28.049 49.7694 29.2254 53.1959 29.2254Z" fill="#CE7D13"/>
<path d="M46.9917 25.0649V26.3423C46.9917 27.4371 48.5244 28.3495 50.7142 28.751C51.2251 28.8604 51.809 28.9334 52.393 28.9334C52.6484 28.9334 52.9404 28.9699 53.1959 28.9699C54.0717 28.9699 54.9111 28.8969 55.6775 28.751C57.8672 28.3495 58.9986 27.4006 58.9986 26.3058L59.4 24.919C58.5241 23.9336 55.8235 23.6781 53.1959 23.6781C51.1156 23.6781 48.123 24.3715 46.9917 25.0649Z" fill="#FFC50D"/>
<g opacity="0.43">
<path opacity="0.43" d="M50.7142 26.4153V28.751C51.2251 28.8605 51.809 28.9334 52.393 28.9334V26.4153H50.7142Z" fill="#FFFC8F"/>
</g>
<path d="M55.4221 28.7875V23.7876C57.2103 23.9336 58.7796 24.2256 59.4 24.9555V26.3423C59.4 27.4371 57.7578 28.386 55.4221 28.7875Z" fill="#F19D00"/>
<path d="M53.1959 27.6926C56.6223 27.6926 59.4 26.5162 59.4 25.065C59.4 23.6138 56.6223 22.4373 53.1959 22.4373C49.7694 22.4373 46.9917 23.6138 46.9917 25.065C46.9917 26.5162 49.7694 27.6926 53.1959 27.6926Z" fill="#FFD400"/>
<path d="M49.6558 27.1087C48.5975 26.7802 47.7945 26.3058 47.4296 25.7948L52.4294 22.5103C52.7214 22.5103 53.0134 22.4738 53.2688 22.4738C54.2907 22.4738 55.3126 22.5833 56.1884 22.8022L49.6558 27.1087Z" fill="#FFFC8F"/>
<path d="M52.3929 27.5831C51.882 27.5466 51.4076 27.5101 50.9331 27.4007L57.3928 23.1672C57.7577 23.3132 58.0862 23.4592 58.3781 23.6416L52.3929 27.5831Z" fill="#FFFC8F"/>
<path d="M53.1959 27.4006C56.6223 27.4006 59.4 26.2242 59.4 24.773C59.4 23.3218 56.6223 22.1453 53.1959 22.1453C49.7694 22.1453 46.9917 23.3218 46.9917 24.773C46.9917 26.2242 49.7694 27.4006 53.1959 27.4006Z" fill="#CE7D13"/>
<path d="M46.9917 23.2402V24.5175C46.9917 25.6124 48.5244 26.5248 50.7142 26.9262C51.2251 27.0357 51.809 27.1087 52.393 27.1087C52.6484 27.1087 52.9404 27.1452 53.1959 27.1452C54.0717 27.1452 54.9111 27.0722 55.6775 26.9262C57.8672 26.5248 58.9986 25.5759 58.9986 24.4811L59.4 23.0942C58.5241 22.1089 55.8235 21.8534 53.1959 21.8534C51.1156 21.8534 48.123 22.5468 46.9917 23.2402Z" fill="#FFC50D"/>
<g opacity="0.43">
<path opacity="0.43" d="M50.7142 24.5905V26.9262C51.2251 27.0357 51.809 27.1087 52.393 27.1087V24.5905H50.7142Z" fill="#FFFC8F"/>
</g>
<path d="M55.4221 26.9627V21.9629C57.2103 22.1088 58.7796 22.4008 59.4 23.1307V24.5175C59.4 25.6124 57.7578 26.5613 55.4221 26.9627Z" fill="#F19D00"/>
<path d="M53.1959 25.8679C56.6223 25.8679 59.4 24.6914 59.4 23.2402C59.4 21.789 56.6223 20.6125 53.1959 20.6125C49.7694 20.6125 46.9917 21.789 46.9917 23.2402C46.9917 24.6914 49.7694 25.8679 53.1959 25.8679Z" fill="#FFD400"/>
<path d="M49.6558 25.2839C48.5975 24.9555 47.7945 24.481 47.4296 23.9701L52.4294 20.6855C52.7214 20.6855 53.0134 20.649 53.2688 20.649C54.2907 20.649 55.3126 20.7585 56.1884 20.9775L49.6558 25.2839Z" fill="#FFFC8F"/>
<path d="M52.3929 25.7584C51.882 25.7219 51.4076 25.6854 50.9331 25.5759L57.3928 21.3424C57.7577 21.4884 58.0862 21.6344 58.3781 21.8169L52.3929 25.7584Z" fill="#FFFC8F"/>
<path d="M53.1959 25.5759C56.6223 25.5759 59.4 24.3995 59.4 22.9482C59.4 21.497 56.6223 20.3206 53.1959 20.3206C49.7694 20.3206 46.9917 21.497 46.9917 22.9482C46.9917 24.3995 49.7694 25.5759 53.1959 25.5759Z" fill="#CE7D13"/>
<path d="M46.9917 21.4154V22.6928C46.9917 23.7876 48.5244 24.7 50.7142 25.1015C51.2251 25.2109 51.809 25.2839 52.393 25.2839C52.6484 25.2839 52.9404 25.3204 53.1959 25.3204C54.0717 25.3204 54.9111 25.2474 55.6775 25.1015C57.8672 24.7 58.9986 23.7511 58.9986 22.6563L59.4 21.2695C58.5241 20.2841 55.8235 20.0286 53.1959 20.0286C51.1156 20.0286 48.123 20.722 46.9917 21.4154Z" fill="#FFC50D"/>
<g opacity="0.43">
<path opacity="0.43" d="M50.7142 22.7657V25.1014C51.2251 25.2109 51.809 25.2839 52.393 25.2839V22.7657H50.7142Z" fill="#FFFC8F"/>
</g>
<path d="M55.4221 25.138V20.1381C57.2103 20.2841 58.7796 20.5761 59.4 21.306V22.6928C59.4 23.7876 57.7578 24.7365 55.4221 25.138Z" fill="#F19D00"/>
<path d="M53.1959 24.0431C56.6223 24.0431 59.4 22.8666 59.4 21.4154C59.4 19.9642 56.6223 18.7878 53.1959 18.7878C49.7694 18.7878 46.9917 19.9642 46.9917 21.4154C46.9917 22.8666 49.7694 24.0431 53.1959 24.0431Z" fill="#FFD400"/>
<path d="M49.6558 23.4592C48.5975 23.1307 47.7945 22.6563 47.4296 22.1453L52.4294 18.8608C52.7214 18.8608 53.0134 18.8243 53.2688 18.8243C54.2907 18.8243 55.3126 18.9338 56.1884 19.1527L49.6558 23.4592Z" fill="#FFFC8F"/>
<path d="M52.3929 23.9336C51.882 23.8971 51.4076 23.8606 50.9331 23.7511L57.3928 19.5177C57.7577 19.6637 58.0862 19.8097 58.3781 19.9921L52.3929 23.9336Z" fill="#FFFC8F"/>
<path d="M53.1959 23.7511C56.6223 23.7511 59.4 22.5747 59.4 21.1235C59.4 19.6723 56.6223 18.4958 53.1959 18.4958C49.7694 18.4958 46.9917 19.6723 46.9917 21.1235C46.9917 22.5747 49.7694 23.7511 53.1959 23.7511Z" fill="#CE7D13"/>
<path d="M46.9917 19.5907V20.868C46.9917 21.9629 48.5244 22.8752 50.7142 23.2767C51.2251 23.3862 51.809 23.4592 52.393 23.4592C52.6484 23.4592 52.9404 23.4957 53.1959 23.4957C54.0717 23.4957 54.9111 23.4227 55.6775 23.2767C57.8672 22.8752 58.9986 21.9264 58.9986 20.8315L59.4 19.4447C58.5241 18.4593 55.8235 18.2039 53.1959 18.2039C51.1156 18.2039 48.123 18.8973 46.9917 19.5907Z" fill="#FFC50D"/>
<g opacity="0.43">
<path opacity="0.43" d="M50.7142 20.941V23.2767C51.2251 23.3862 51.809 23.4592 52.393 23.4592V20.941H50.7142Z" fill="#FFFC8F"/>
</g>
<path d="M55.4221 23.3132V18.3134C57.2103 18.4593 58.7796 18.7513 59.4 19.4812V20.868C59.4 21.9629 57.7578 22.9118 55.4221 23.3132Z" fill="#F19D00"/>
<path d="M53.1959 22.2183C56.6223 22.2183 59.4 21.0419 59.4 19.5907C59.4 18.1395 56.6223 16.963 53.1959 16.963C49.7694 16.963 46.9917 18.1395 46.9917 19.5907C46.9917 21.0419 49.7694 22.2183 53.1959 22.2183Z" fill="#FFD400"/>
<path d="M49.6558 21.6344C48.5975 21.306 47.7945 20.8315 47.4296 20.3206L52.4294 17.036C52.7214 17.036 53.0134 16.9995 53.2688 16.9995C54.2907 16.9995 55.3126 17.109 56.1884 17.328L49.6558 21.6344Z" fill="#FFFC8F"/>
<path d="M52.3929 22.1089C51.882 22.0724 51.4076 22.0359 50.9331 21.9264L57.3928 17.693C57.7577 17.8389 58.0862 17.9849 58.3781 18.1674L52.3929 22.1089Z" fill="#FFFC8F"/>
<path d="M53.1959 21.9264C56.6223 21.9264 59.4 20.7499 59.4 19.2987C59.4 17.8475 56.6223 16.6711 53.1959 16.6711C49.7694 16.6711 46.9917 17.8475 46.9917 19.2987C46.9917 20.7499 49.7694 21.9264 53.1959 21.9264Z" fill="#CE7D13"/>
<path d="M46.9917 17.7659V19.0433C46.9917 20.1381 48.5244 21.0505 50.7142 21.4519C51.2251 21.5614 51.809 21.6344 52.393 21.6344C52.6484 21.6344 52.9404 21.6709 53.1959 21.6709C54.0717 21.6709 54.9111 21.5979 55.6775 21.4519C57.8672 21.0505 58.9986 20.1016 58.9986 19.0068L59.4 17.62C58.5241 16.6346 55.8235 16.3791 53.1959 16.3791C51.1156 16.3791 48.123 17.0725 46.9917 17.7659Z" fill="#FFC50D"/>
<g opacity="0.43">
<path opacity="0.43" d="M50.7142 19.1162V21.4519C51.2251 21.5614 51.809 21.6344 52.393 21.6344V19.1162H50.7142Z" fill="#FFFC8F"/>
</g>
<path d="M55.4221 21.4884V16.4886C57.2103 16.6346 58.7796 16.9265 59.4 17.6564V19.0432C59.4 20.1381 57.7578 21.087 55.4221 21.4884Z" fill="#F19D00"/>
<path d="M53.1959 20.3936C56.6223 20.3936 59.4 19.2171 59.4 17.7659C59.4 16.3147 56.6223 15.1383 53.1959 15.1383C49.7694 15.1383 46.9917 16.3147 46.9917 17.7659C46.9917 19.2171 49.7694 20.3936 53.1959 20.3936Z" fill="#FFD400"/>
<path d="M49.6558 19.8096C48.5975 19.4812 47.7945 19.0067 47.4296 18.4958L52.4294 15.2112C52.7214 15.2112 53.0134 15.1747 53.2688 15.1747C54.2907 15.1747 55.3126 15.2842 56.1884 15.5032L49.6558 19.8096Z" fill="#FFFC8F"/>
<path d="M52.3929 20.2841C51.882 20.2476 51.4076 20.2111 50.9331 20.1016L57.3928 15.8682C57.7577 16.0141 58.0862 16.1601 58.3781 16.3426L52.3929 20.2841Z" fill="#FFFC8F"/>
<path d="M53.1959 20.1016C56.6223 20.1016 59.4 18.9252 59.4 17.474C59.4 16.0228 56.6223 14.8463 53.1959 14.8463C49.7694 14.8463 46.9917 16.0228 46.9917 17.474C46.9917 18.9252 49.7694 20.1016 53.1959 20.1016Z" fill="#CE7D13"/>
<path d="M46.9917 15.9412V17.2185C46.9917 18.3134 48.5244 19.2257 50.7142 19.6272C51.2251 19.7367 51.809 19.8097 52.393 19.8097C52.6484 19.8097 52.9404 19.8462 53.1959 19.8462C54.0717 19.8462 54.9111 19.7732 55.6775 19.6272C57.8672 19.2257 58.9986 18.2769 58.9986 17.182L59.4 15.7952C58.5241 14.8098 55.8235 14.5544 53.1959 14.5544C51.1156 14.5544 48.123 15.2478 46.9917 15.9412Z" fill="#FFC50D"/>
<g opacity="0.43">
<path opacity="0.43" d="M50.7142 17.2915V19.6272C51.2251 19.7366 51.809 19.8096 52.393 19.8096V17.2915H50.7142Z" fill="#FFFC8F"/>
</g>
<path d="M55.4221 19.6637V14.6638C57.2103 14.8098 58.7796 15.1018 59.4 15.8317V17.2185C59.4 18.3133 57.7578 19.2622 55.4221 19.6637Z" fill="#F19D00"/>
<path d="M53.1959 18.5688C56.6223 18.5688 59.4 17.3924 59.4 15.9412C59.4 14.4899 56.6223 13.3135 53.1959 13.3135C49.7694 13.3135 46.9917 14.4899 46.9917 15.9412C46.9917 17.3924 49.7694 18.5688 53.1959 18.5688Z" fill="#FFD400"/>
<path d="M49.6558 17.9849C48.5975 17.6564 47.7945 17.182 47.4296 16.671L52.4294 13.3865C52.7214 13.3865 53.0134 13.35 53.2688 13.35C54.2907 13.35 55.3126 13.4595 56.1884 13.6784L49.6558 17.9849Z" fill="#FFFC8F"/>
<path d="M52.3929 18.4593C51.882 18.4228 51.4076 18.3863 50.9331 18.2768L57.3928 14.0434C57.7577 14.1894 58.0862 14.3354 58.3781 14.5178L52.3929 18.4593Z" fill="#FFFC8F"/>
<path d="M33.452 37.6558C36.8784 37.6558 39.6561 36.4794 39.6561 35.0282C39.6561 33.577 36.8784 32.4005 33.452 32.4005C30.0255 32.4005 27.2478 33.577 27.2478 35.0282C27.2478 36.4794 30.0255 37.6558 33.452 37.6558Z" fill="#CE7D13"/>
<path d="M27.2478 33.4954V34.7727C27.2478 35.8676 28.7806 36.7799 30.9703 37.1814C31.4812 37.2909 32.0651 37.3639 32.6491 37.3639C32.9045 37.3639 33.1965 37.4004 33.452 37.4004C34.3278 37.4004 35.1672 37.3274 35.9336 37.1814C38.1233 36.7799 39.2547 35.8311 39.2547 34.7362L39.6561 33.3494C38.7803 32.364 36.0796 32.1086 33.452 32.1086C31.3352 32.145 28.3791 32.8385 27.2478 33.4954Z" fill="#FFC50D"/>
<g opacity="0.43">
<path opacity="0.43" d="M30.9703 34.8457V37.1814C31.4812 37.2908 32.0651 37.3638 32.649 37.3638V34.8457H30.9703Z" fill="#FFFC8F"/>
</g>
<path d="M35.6782 37.2179V32.218C37.4664 32.364 39.0357 32.656 39.6561 33.3859V34.7727C39.6561 35.904 38.0139 36.8529 35.6782 37.2179Z" fill="#F19D00"/>
<path d="M33.452 36.123C36.8784 36.123 39.6561 34.9466 39.6561 33.4954C39.6561 32.0441 36.8784 30.8677 33.452 30.8677C30.0255 30.8677 27.2478 32.0441 27.2478 33.4954C27.2478 34.9466 30.0255 36.123 33.452 36.123Z" fill="#FFD400"/>
<path d="M29.9119 35.5756C28.8536 35.2471 28.0507 34.7727 27.6857 34.2618L32.6856 30.9772C32.9775 30.9772 33.2695 30.9407 33.525 30.9407C34.5468 30.9407 35.5687 31.0502 36.4446 31.2692L29.9119 35.5756Z" fill="#FFFC8F"/>
<path d="M32.649 36.05C32.1381 36.0135 31.6637 35.977 31.1892 35.8675L37.6489 31.6341C38.0138 31.7801 38.3423 31.9261 38.6343 32.1085L32.649 36.05Z" fill="#FFFC8F"/>
<path d="M33.452 35.831C36.8784 35.831 39.6561 34.6546 39.6561 33.2034C39.6561 31.7522 36.8784 30.5757 33.452 30.5757C30.0255 30.5757 27.2478 31.7522 27.2478 33.2034C27.2478 34.6546 30.0255 35.831 33.452 35.831Z" fill="#CE7D13"/>
<path d="M27.2478 31.6706V32.9479C27.2478 34.0428 28.7806 34.9552 30.9703 35.3566C31.4812 35.4661 32.0651 35.5391 32.6491 35.5391C32.9045 35.5391 33.1965 35.5756 33.452 35.5756C34.3278 35.5756 35.1672 35.5026 35.9336 35.3566C38.1233 34.9552 39.2547 34.0063 39.2547 32.9114L39.6561 31.5246C38.7803 30.5392 36.0796 30.2838 33.452 30.2838C31.3352 30.3203 28.3791 31.0137 27.2478 31.6706Z" fill="#FFC50D"/>
<g opacity="0.43">
<path opacity="0.43" d="M30.9703 33.0209V35.3566C31.4812 35.4661 32.0651 35.5391 32.649 35.5391V33.0209H30.9703Z" fill="#FFFC8F"/>
</g>
<path d="M35.6782 35.3931V30.3933C37.4664 30.5393 39.0357 30.8312 39.6561 31.5611V32.9479C39.6561 34.0793 38.0139 35.0282 35.6782 35.3931Z" fill="#F19D00"/>
<path d="M33.452 34.2982C36.8784 34.2982 39.6561 33.1218 39.6561 31.6706C39.6561 30.2194 36.8784 29.0429 33.452 29.0429C30.0255 29.0429 27.2478 30.2194 27.2478 31.6706C27.2478 33.1218 30.0255 34.2982 33.452 34.2982Z" fill="#FFD400"/>
<path d="M29.9119 33.7508C28.8536 33.4224 28.0507 32.9479 27.6857 32.437L32.6856 29.1524C32.9775 29.1524 33.2695 29.1159 33.525 29.1159C34.5468 29.1159 35.5687 29.2254 36.4446 29.4444L29.9119 33.7508Z" fill="#FFFC8F"/>
<path d="M32.649 34.2252C32.1381 34.1888 31.6637 34.1523 31.1892 34.0428L37.6489 29.8093C38.0138 29.9553 38.3423 30.1013 38.6343 30.2838L32.649 34.2252Z" fill="#FFFC8F"/>
<path d="M33.452 34.0063C36.8784 34.0063 39.6561 32.8298 39.6561 31.3786C39.6561 29.9274 36.8784 28.751 33.452 28.751C30.0255 28.751 27.2478 29.9274 27.2478 31.3786C27.2478 32.8298 30.0255 34.0063 33.452 34.0063Z" fill="#CE7D13"/>
<path d="M27.2478 29.8458V31.1232C27.2478 32.218 28.7806 33.1304 30.9703 33.5318C31.4812 33.6413 32.0651 33.7143 32.6491 33.7143C32.9045 33.7143 33.1965 33.7508 33.452 33.7508C34.3278 33.7508 35.1672 33.6778 35.9336 33.5318C38.1233 33.1304 39.2547 32.1815 39.2547 31.0867L39.6561 29.6998C38.7803 28.7145 36.0796 28.459 33.452 28.459C31.3352 28.4955 28.3791 29.1889 27.2478 29.8458Z" fill="#FFC50D"/>
<g opacity="0.43">
<path opacity="0.43" d="M30.9703 31.1962V33.5319C31.4812 33.6413 32.0651 33.7143 32.649 33.7143V31.1962H30.9703Z" fill="#FFFC8F"/>
</g>
<path d="M35.6782 33.5684V28.5685C37.4664 28.7145 39.0357 29.0065 39.6561 29.7364V31.1232C39.6561 32.2545 38.0139 33.2034 35.6782 33.5684Z" fill="#F19D00"/>
<path d="M33.452 32.4735C36.8784 32.4735 39.6561 31.2971 39.6561 29.8458C39.6561 28.3946 36.8784 27.2182 33.452 27.2182C30.0255 27.2182 27.2478 28.3946 27.2478 29.8458C27.2478 31.2971 30.0255 32.4735 33.452 32.4735Z" fill="#FFD400"/>
<path d="M29.9119 31.9261C28.8536 31.5976 28.0507 31.1232 27.6857 30.6122L32.6856 27.3277C32.9775 27.3277 33.2695 27.2912 33.525 27.2912C34.5468 27.2912 35.5687 27.4007 36.4446 27.6196L29.9119 31.9261Z" fill="#FFFC8F"/>
<path d="M32.649 32.4005C32.1381 32.364 31.6637 32.3275 31.1892 32.218L37.6489 27.9846C38.0138 28.1306 38.3423 28.2766 38.6343 28.459L32.649 32.4005Z" fill="#FFFC8F"/>
<path d="M33.452 32.1815C36.8784 32.1815 39.6561 31.0051 39.6561 29.5539C39.6561 28.1027 36.8784 26.9262 33.452 26.9262C30.0255 26.9262 27.2478 28.1027 27.2478 29.5539C27.2478 31.0051 30.0255 32.1815 33.452 32.1815Z" fill="#CE7D13"/>
<path d="M27.2478 28.0211V29.2984C27.2478 30.3933 28.7806 31.3057 30.9703 31.7071C31.4812 31.8166 32.0651 31.8896 32.6491 31.8896C32.9045 31.8896 33.1965 31.9261 33.452 31.9261C34.3278 31.9261 35.1672 31.8531 35.9336 31.7071C38.1233 31.3057 39.2547 30.3568 39.2547 29.2619L39.6561 27.8751C38.7803 26.8897 36.0796 26.6343 33.452 26.6343C31.3352 26.6708 28.3791 27.3642 27.2478 28.0211Z" fill="#FFC50D"/>
<g opacity="0.43">
<path opacity="0.43" d="M30.9703 29.3714V31.7071C31.4812 31.8166 32.0651 31.8896 32.649 31.8896V29.3714H30.9703Z" fill="#FFFC8F"/>
</g>
<path d="M35.6782 31.7436V26.7437C37.4664 26.8897 39.0357 27.1817 39.6561 27.9116V29.2984C39.6561 30.4298 38.0139 31.3786 35.6782 31.7436Z" fill="#F19D00"/>
<path d="M33.452 30.6487C36.8784 30.6487 39.6561 29.4723 39.6561 28.0211C39.6561 26.5699 36.8784 25.3934 33.452 25.3934C30.0255 25.3934 27.2478 26.5699 27.2478 28.0211C27.2478 29.4723 30.0255 30.6487 33.452 30.6487Z" fill="#FFD400"/>
<path d="M29.9119 30.1013C28.8536 29.7728 28.0507 29.2984 27.6857 28.7875L32.6856 25.5029C32.9775 25.5029 33.2695 25.4664 33.525 25.4664C34.5468 25.4664 35.5687 25.5759 36.4446 25.7949L29.9119 30.1013Z" fill="#FFFC8F"/>
<path d="M32.649 30.5757C32.1381 30.5392 31.6637 30.5028 31.1892 30.3933L37.6489 26.1598C38.0138 26.3058 38.3423 26.4518 38.6343 26.6343L32.649 30.5757Z" fill="#FFFC8F"/>
<path d="M33.452 30.3568C36.8784 30.3568 39.6561 29.1803 39.6561 27.7291C39.6561 26.2779 36.8784 25.1015 33.452 25.1015C30.0255 25.1015 27.2478 26.2779 27.2478 27.7291C27.2478 29.1803 30.0255 30.3568 33.452 30.3568Z" fill="#CE7D13"/>
<path d="M27.2478 26.1963V27.4737C27.2478 28.5685 28.7806 29.4809 30.9703 29.8823C31.4812 29.9918 32.0651 30.0648 32.6491 30.0648C32.9045 30.0648 33.1965 30.1013 33.452 30.1013C34.3278 30.1013 35.1672 30.0283 35.9336 29.8823C38.1233 29.4809 39.2547 28.532 39.2547 27.4372L39.6561 26.0503C38.7803 25.065 36.0796 24.8095 33.452 24.8095C31.3352 24.846 28.3791 25.5394 27.2478 26.1963Z" fill="#FFC50D"/>
<g opacity="0.43">
<path opacity="0.43" d="M30.9703 27.5466V29.8823C31.4812 29.9918 32.0651 30.0648 32.649 30.0648V27.5466H30.9703Z" fill="#FFFC8F"/>
</g>
<path d="M35.6782 29.9188V24.919C37.4664 25.065 39.0357 25.3569 39.6561 26.0868V27.4736C39.6561 28.605 38.0139 29.5539 35.6782 29.9188Z" fill="#F19D00"/>
<path d="M33.452 28.824C36.8784 28.824 39.6561 27.6475 39.6561 26.1963C39.6561 24.7451 36.8784 23.5687 33.452 23.5687C30.0255 23.5687 27.2478 24.7451 27.2478 26.1963C27.2478 27.6475 30.0255 28.824 33.452 28.824Z" fill="#FFD400"/>
<path d="M29.9119 28.2766C28.8536 27.9481 28.0507 27.4737 27.6857 26.9627L32.6856 23.6782C32.9775 23.6782 33.2695 23.6417 33.525 23.6417C34.5468 23.6417 35.5687 23.7511 36.4446 23.9701L29.9119 28.2766Z" fill="#FFFC8F"/>
<path d="M32.649 28.751C32.1381 28.7145 31.6637 28.678 31.1892 28.5685L37.6489 24.3351C38.0138 24.481 38.3423 24.627 38.6343 24.8095L32.649 28.751Z" fill="#FFFC8F"/>
<path d="M33.452 28.532C36.8784 28.532 39.6561 27.3556 39.6561 25.9044C39.6561 24.4531 36.8784 23.2767 33.452 23.2767C30.0255 23.2767 27.2478 24.4531 27.2478 25.9044C27.2478 27.3556 30.0255 28.532 33.452 28.532Z" fill="#CE7D13"/>
<path d="M27.2478 24.3716V25.6489C27.2478 26.7437 28.7806 27.6561 30.9703 28.0576C31.4812 28.1671 32.0651 28.24 32.6491 28.24C32.9045 28.24 33.1965 28.2765 33.452 28.2765C34.3278 28.2765 35.1672 28.2036 35.9336 28.0576C38.1233 27.6561 39.2547 26.7072 39.2547 25.6124L39.6561 24.2256C38.7803 23.2402 36.0796 22.9847 33.452 22.9847C31.3352 23.0212 28.3791 23.7146 27.2478 24.3716Z" fill="#FFC50D"/>
<g opacity="0.43">
<path opacity="0.43" d="M30.9703 25.7219V28.0576C31.4812 28.1671 32.0651 28.2401 32.649 28.2401V25.7219H30.9703Z" fill="#FFFC8F"/>
</g>
<path d="M35.6782 28.0941V23.0942C37.4664 23.2402 39.0357 23.5322 39.6561 24.2621V25.6489C39.6561 26.7803 38.0139 27.7291 35.6782 28.0941Z" fill="#F19D00"/>
<path d="M33.452 26.9992C36.8784 26.9992 39.6561 25.8228 39.6561 24.3716C39.6561 22.9204 36.8784 21.7439 33.452 21.7439C30.0255 21.7439 27.2478 22.9204 27.2478 24.3716C27.2478 25.8228 30.0255 26.9992 33.452 26.9992Z" fill="#FFD400"/>
<path d="M29.9119 26.4518C28.8536 26.1234 28.0507 25.6489 27.6857 25.138L32.6856 21.8534C32.9775 21.8534 33.2695 21.8169 33.525 21.8169C34.5468 21.8169 35.5687 21.9264 36.4446 22.1454L29.9119 26.4518Z" fill="#FFFC8F"/>
<path d="M32.649 26.9262C32.1381 26.8897 31.6637 26.8532 31.1892 26.7438L37.6489 22.5103C38.0138 22.6563 38.3423 22.8023 38.6343 22.9848L32.649 26.9262Z" fill="#FFFC8F"/>
<path d="M33.452 26.7072C36.8784 26.7072 39.6561 25.5308 39.6561 24.0796C39.6561 22.6284 36.8784 21.4519 33.452 21.4519C30.0255 21.4519 27.2478 22.6284 27.2478 24.0796C27.2478 25.5308 30.0255 26.7072 33.452 26.7072Z" fill="#CE7D13"/>
<path d="M27.2478 22.5468V23.8241C27.2478 24.919 28.7806 25.8314 30.9703 26.2328C31.4812 26.3423 32.0651 26.4153 32.6491 26.4153C32.9045 26.4153 33.1965 26.4518 33.452 26.4518C34.3278 26.4518 35.1672 26.3788 35.9336 26.2328C38.1233 25.8314 39.2547 24.8825 39.2547 23.7877L39.6561 22.4008C38.7803 21.4155 36.0796 21.16 33.452 21.16C31.3352 21.1965 28.3791 21.8899 27.2478 22.5468Z" fill="#FFC50D"/>
<g opacity="0.43">
<path opacity="0.43" d="M30.9703 23.8972V26.2328C31.4812 26.3423 32.0651 26.4153 32.649 26.4153V23.8972H30.9703Z" fill="#FFFC8F"/>
</g>
<path d="M35.6782 26.2693V21.2695C37.4664 21.4155 39.0357 21.7074 39.6561 22.4373V23.8241C39.6561 24.9555 38.0139 25.9044 35.6782 26.2693Z" fill="#F19D00"/>
<path d="M33.452 25.1745C36.8784 25.1745 39.6561 23.998 39.6561 22.5468C39.6561 21.0956 36.8784 19.9192 33.452 19.9192C30.0255 19.9192 27.2478 21.0956 27.2478 22.5468C27.2478 23.998 30.0255 25.1745 33.452 25.1745Z" fill="#FFD400"/>
<path d="M29.9119 24.6271C28.8536 24.2986 28.0507 23.8242 27.6857 23.3132L32.6856 20.0287C32.9775 20.0287 33.2695 19.9922 33.525 19.9922C34.5468 19.9922 35.5687 20.1016 36.4446 20.3206L29.9119 24.6271Z" fill="#FFFC8F"/>
<path d="M32.649 25.1015C32.1381 25.065 31.6637 25.0285 31.1892 24.919L37.6489 20.6855C38.0138 20.8315 38.3423 20.9775 38.6343 21.16L32.649 25.1015Z" fill="#FFFC8F"/>
<path d="M33.452 24.8825C36.8784 24.8825 39.6561 23.7061 39.6561 22.2549C39.6561 20.8036 36.8784 19.6272 33.452 19.6272C30.0255 19.6272 27.2478 20.8036 27.2478 22.2549C27.2478 23.7061 30.0255 24.8825 33.452 24.8825Z" fill="#CE7D13"/>
<path d="M27.2478 20.722V21.9994C27.2478 23.0942 28.7806 24.0066 30.9703 24.4081C31.4812 24.5175 32.0651 24.5905 32.6491 24.5905C32.9045 24.5905 33.1965 24.627 33.452 24.627C34.3278 24.627 35.1672 24.554 35.9336 24.4081C38.1233 24.0066 39.2547 23.0577 39.2547 21.9629L39.6561 20.5761C38.7803 19.5907 36.0796 19.3352 33.452 19.3352C31.3352 19.3717 28.3791 20.0651 27.2478 20.722Z" fill="#FFC50D"/>
<g opacity="0.43">
<path opacity="0.43" d="M30.9703 22.0724V24.408C31.4812 24.5175 32.0651 24.5905 32.649 24.5905V22.0724H30.9703Z" fill="#FFFC8F"/>
</g>
<path d="M35.6782 24.4445V19.4447C37.4664 19.5907 39.0357 19.8826 39.6561 20.6126V21.9994C39.6561 23.1307 38.0139 24.0796 35.6782 24.4445Z" fill="#F19D00"/>
<path d="M33.452 23.3497C36.8784 23.3497 39.6561 22.1733 39.6561 20.722C39.6561 19.2708 36.8784 18.0944 33.452 18.0944C30.0255 18.0944 27.2478 19.2708 27.2478 20.722C27.2478 22.1733 30.0255 23.3497 33.452 23.3497Z" fill="#FFD400"/>
<path d="M29.9119 22.8023C28.8536 22.4738 28.0507 21.9994 27.6857 21.4884L32.6856 18.2039C32.9775 18.2039 33.2695 18.1674 33.525 18.1674C34.5468 18.1674 35.5687 18.2768 36.4446 18.4958L29.9119 22.8023Z" fill="#FFFC8F"/>
<path d="M32.649 23.2767C32.1381 23.2402 31.6637 23.2037 31.1892 23.0942L37.6489 18.8608C38.0138 19.0068 38.3423 19.1527 38.6343 19.3352L32.649 23.2767Z" fill="#FFFC8F"/>
<path d="M44.0355 48.6774L51.1521 40.2105V44.6994L44.072 53.2028V53.2393H14V48.6774H44.0355Z" fill="#47752F"/>
<path d="M51.1521 44.006V39.4806L44.0355 47.9839L44.072 52.5093L51.1521 44.006Z" fill="#4E8436"/>
<path d="M21.1896 39.6631L14.3285 47.838H43.9625L50.8237 39.6631H21.1896Z" fill="#ADE069"/>
<path d="M14 52.5458H44.072L44.0355 47.9839H14V52.5458Z" fill="#70A33C"/>
<path d="M21.1531 39.6266L14.438 47.765H44.1085L50.8237 39.6266H21.1531ZM18.2334 45.1373L20.5691 42.3272C22.1384 42.3272 24.0727 41.4878 24.9121 40.4659H45.7508C44.9114 41.4878 45.4589 42.2907 46.9552 42.3272L44.6195 45.1373C43.0867 45.1373 41.2254 45.9402 40.3495 46.9256H19.5108C20.3137 45.9402 19.7297 45.1373 18.2334 45.1373Z" fill="#70A33C"/>
<path d="M33.0864 45.0266C34.6988 44.4473 35.7904 43.378 35.5246 42.6383C35.2588 41.8985 33.7363 41.7684 32.124 42.3476C30.5117 42.9269 29.4201 43.9961 29.6858 44.7359C29.9516 45.4757 31.4741 45.6058 33.0864 45.0266Z" fill="#607700"/>
<path d="M37.3934 43.6775C36.9555 44.1884 37.2475 44.5899 38.0504 44.5899C38.8168 44.5899 39.8021 44.1884 40.2036 43.6775C40.6415 43.1666 40.3495 42.7651 39.5466 42.7651C38.7802 42.7651 37.7949 43.1666 37.3934 43.6775Z" fill="white"/>
<path d="M25.058 43.6775C24.6201 44.1884 24.9121 44.5899 25.7149 44.5899C26.4813 44.5899 27.4667 44.1884 27.8682 43.6775C28.3061 43.1666 28.0142 42.7651 27.2113 42.7651C26.4449 42.7651 25.4595 43.1666 25.058 43.6775Z" fill="white"/>
<path d="M21.1166 39.4806H51.1521L44.0355 47.9474H14L21.1166 39.4806ZM50.4952 39.809H21.2626L14.6569 47.6555H43.8896L50.4952 39.809Z" fill="#9FD65E"/>
<path opacity="0.44" d="M34.8753 39.4806H39.0357L31.9556 47.9839V52.5458H27.7587V47.9839L34.8753 39.4806Z" fill="#48842F"/>
<path d="M26.9193 47.9839V52.5458H31.0797V47.9839L38.1963 39.4806H34.0359L26.9193 47.9839Z" fill="white"/>
<path d="M37.7219 39.4806H38.5613L31.4447 47.9839V52.5458H30.6053V47.9839L37.7219 39.4806Z" fill="#FF895A"/>
<path d="M33.6344 39.4806H34.4738L27.3572 47.9839V52.5458H26.5179V47.9839L33.6344 39.4806Z" fill="#FF895A"/>
<path opacity="0.29" d="M26.5179 47.9839V52.5458H31.4447V47.9839H31.4812H27.2843H26.5179Z" fill="#846E56"/>
<path d="M44.0355 43.2031L51.1521 34.7362V39.2251L44.072 47.7285V47.765H14V43.2031H44.0355Z" fill="#47752F"/>
<path d="M51.1521 38.5317V34.0063L44.0355 42.5097L44.072 47.0351L51.1521 38.5317Z" fill="#4E8436"/>
<path d="M21.1896 34.1888L14.3285 42.3637H43.9625L50.8237 34.1888H21.1896Z" fill="#ADE069"/>
<path d="M14 47.0716H44.072L44.0355 42.5097H14V47.0716Z" fill="#70A33C"/>
<path d="M21.1531 34.1523L14.438 42.2907H44.1085L50.8237 34.1523H21.1531ZM18.2334 39.663L20.5691 36.8529C22.1384 36.8529 24.0727 36.0135 24.9121 34.9917H45.7508C44.9114 36.0135 45.4589 36.8164 46.9552 36.8529L44.6195 39.663C43.0867 39.663 41.2254 40.466 40.3495 41.4513H19.5108C20.3137 40.466 19.7297 39.663 18.2334 39.663Z" fill="#70A33C"/>
<path d="M33.0866 39.5523C34.6989 38.9731 35.7905 37.9038 35.5247 37.164C35.259 36.4242 33.7365 36.2941 32.1242 36.8733C30.5118 37.4526 29.4202 38.5219 29.686 39.2616C29.9518 40.0014 31.4743 40.1315 33.0866 39.5523Z" fill="#607700"/>
<path d="M37.3934 38.2032C36.9555 38.7142 37.2475 39.1156 38.0504 39.1156C38.8168 39.1156 39.8021 38.7142 40.2036 38.2032C40.6415 37.6923 40.3495 37.2909 39.5466 37.2909C38.7802 37.2909 37.7949 37.6923 37.3934 38.2032Z" fill="white"/>
<path d="M25.058 38.2032C24.6201 38.7142 24.9121 39.1156 25.7149 39.1156C26.4813 39.1156 27.4667 38.7142 27.8682 38.2032C28.3061 37.6923 28.0142 37.2909 27.2113 37.2909C26.4449 37.2909 25.4595 37.6923 25.058 38.2032Z" fill="white"/>
<path d="M21.1166 34.0063H51.1521L44.0355 42.4732H14L21.1166 34.0063ZM50.4952 34.3348H21.2626L14.6569 42.1812H43.8896L50.4952 34.3348Z" fill="#9FD65E"/>
<path opacity="0.44" d="M34.8753 34.0063H39.0357L31.9556 42.5097V47.0716H27.7587V42.5097L34.8753 34.0063Z" fill="#48842F"/>
<path d="M26.9193 42.5097V47.0716H31.0797V42.5097L38.1963 34.0063H34.0359L26.9193 42.5097Z" fill="white"/>
<path d="M37.7219 34.0063H38.5613L31.4447 42.5097V47.0716H30.6053V42.5097L37.7219 34.0063Z" fill="#FF895A"/>
<path d="M33.6344 34.0063H34.4738L27.3572 42.5097V47.0716H26.5179V42.5097L33.6344 34.0063Z" fill="#FF895A"/>
<path opacity="0.29" d="M26.5179 42.5097V47.0716H31.4447V42.5097H31.4812H27.2843H26.5179Z" fill="#846E56"/>
</svg>
